<svg width="64" height="64" xmlns="http://www.w3.org/2000/svg"><path d="M-44.068 15.543c.075.667.25 1.312.25 2 0 9.94-8.06 18-18 18-.471 0-.914-.09-1.375-.125v8.875a7.234 7.234 0 0 0 7.25 7.25h6.18l8 8.187 8.25-8.187h6.445a7.234 7.234 0 0 0 7.25-7.25v-21.5a7.234 7.234 0 0 0-7.25-7.25z" style="color:#000;display:inline;overflow:visible;visibility:visible;opacity:.5;fill:#c3c3c3;fill-opacity:1;fill-rule:nonzero;stroke:none;stroke-width:8;marker:none;enable-background:accumulate"/><path d="M-61.818 3.543c-7.732 0-14 6.268-14 14s6.268 14 14 14 14-6.268 14-14-6.268-14-14-14zm-2.125 4h4.125l-.25 5.5a.798.798 0 0 0 0 .25.798.798 0 0 0 0 .124.798.798 0 0 0 .5.5.798.798 0 0 0 .125 0 .798.798 0 0 0 .25 0 .798.798 0 0 0 .25 0 .798.798 0 0 0 .124-.124l4.625-3 2 3.625-4.875 2.5a.798.798 0 0 0-.124 0 .798.798 0 0 0-.125.124.798.798 0 0 0-.125.375.798.798 0 0 0 0 .25.798.798 0 0 0 0 .125.798.798 0 0 0 .125.25.798.798 0 0 0 .125.125.798.798 0 0 0 .124.125l5 2.5-2.125 3.625-4.625-3.124a.798.798 0 0 0-.124 0 .798.798 0 0 0-.25-.125.798.798 0 0 0-.25 0 .798.798 0 0 0-.5.375.798.798 0 0 0-.125.124.798.798 0 0 0 0 .125.798.798 0 0 0 0 .25l.25 5.5h-4.125l.375-5.5a.798.798 0 0 0-.125-.374.798.798 0 0 0-.125-.25.798.798 0 0 0-.25-.125.798.798 0 0 0-.25-.125.798.798 0 0 0-.125 0 .798.798 0 0 0-.375.125l-4.75 3.125-2-3.625 5-2.5a.798.798 0 0 0 .125-.125.798.798 0 0 0 .125-.125.798.798 0 0 0 .125-.25.798.798 0 0 0 0-.124.798.798 0 0 0 0-.25.798.798 0 0 0 0-.125.798.798 0 0 0-.125-.25.798.798 0 0 0-.125-.125.798.798 0 0 0-.125 0l-5-2.5 2-3.625 4.75 3a.798.798 0 0 0 .125.125.798.798 0 0 0 .25 0 .798.798 0 0 0 .25 0 .798.798 0 0 0 .125 0 .798.798 0 0 0 .125-.125.798.798 0 0 0 .125-.125.798.798 0 0 0 .124-.125.798.798 0 0 0 0-.124.798.798 0 0 0 .125-.25.798.798 0 0 0 0-.125z" style="color:#000;display:inline;overflow:visible;visibility:visible;fill:#bebebe;fill-opacity:1;fill-rule:nonzero;stroke:none;stroke-width:4;marker:none;enable-background:accumulate"/><path style="vector-effect:none;fill:#bebebe;fill-opacity:.5;stroke:none;stroke-width:4;stroke-linecap:butt;stroke-linejoin:miter;stroke-miterlimit:4;stroke-dasharray:none;stroke-dashoffset:0;stroke-opacity:1;marker:none;paint-order:normal" d="M32 8c-8.837 0-13.32 6-16 16l-4 20c-.433 2.166-1.79 4-4 4v4h48v-4c-2.21 0-3.567-1.834-4-4l-4-20C45.879 14 40.837 8 32 8zm.703 48a6 6 0 0 0 5.649 4A6 6 0 0 0 44 56H32.703z"/></svg>